<svg width="32" height="47" viewBox="0 0 32 47" fill="none" xmlns="http://www.w3.org/2000/svg">
<path fill-rule="evenodd" clip-rule="evenodd" d="M15.6667 23.5C15.6667 19.1738 19.1738 15.6667 23.5 15.6667C27.8262 15.6667 31.3333 19.1738 31.3333 23.5C31.3333 27.8262 27.8262 31.3333 23.5 31.3333C19.1738 31.3333 15.6667 27.8262 15.6667 23.5Z" fill="#1ABCFE"/>
<path fill-rule="evenodd" clip-rule="evenodd" d="M0 39.1667C0 34.8404 3.50711 31.3333 7.83334 31.3333H15.6667V39.1667C15.6667 43.4929 12.1596 47 7.83334 47C3.50711 47 0 43.4929 0 39.1667Z" fill="#0ACF83"/>
<path fill-rule="evenodd" clip-rule="evenodd" d="M15.6667 0V15.6667H23.5C27.8262 15.6667 31.3333 12.1596 31.3333 7.83334C31.3333 3.50711 27.8262 0 23.5 0H15.6667Z" fill="#FF7262"/>
<path fill-rule="evenodd" clip-rule="evenodd" d="M1.54221e-05 7.83334C1.54221e-05 12.1596 3.50712 15.6667 7.83335 15.6667H15.6667V0H7.83335C3.50712 0 1.54221e-05 3.50711 1.54221e-05 7.83334Z" fill="#F24E1E"/>
<path fill-rule="evenodd" clip-rule="evenodd" d="M0 23.5C0 27.8262 3.50711 31.3333 7.83334 31.3333H15.6667V15.6667H7.83334C3.50711 15.6667 0 19.1738 0 23.5Z" fill="#A259FF"/>
</svg>
